<svg width="174" height="26" viewBox="0 0 174 26" fill="none" xmlns="http://www.w3.org/2000/svg">
<g clip-path="url(#clip0_1706_11)">
<path d="M20.1369 26C22.8983 26 25.1842 23.7425 24.6732 21.0288C24.3528 19.3274 23.8679 17.6594 23.2235 16.0502C21.9602 12.8958 20.1087 10.0295 17.7745 7.61517C15.4403 5.20085 12.6692 3.2857 9.61949 1.97908C8.11383 1.33401 6.55481 0.843491 4.96489 0.512149C2.26154 -0.0512291 0 2.23853 0 4.99995V21C0 23.7614 2.23858 26 5 26H20.1369Z" fill="#615DFF"/>
<g style="mix-blend-mode:multiply">
<path d="M13.7013 26C10.9399 26 8.65396 23.7425 9.16503 21.0288C9.48545 19.3274 9.97032 17.6594 10.6147 16.0502C11.878 12.8958 13.7295 10.0295 16.0637 7.61517C18.3979 5.20085 21.169 3.2857 24.2187 1.97908C25.7244 1.33401 27.2834 0.843491 28.8733 0.512149C31.5767 -0.0512291 33.8382 2.23853 33.8382 4.99995V21C33.8382 23.7614 31.5996 26 28.8382 26H13.7013Z" fill="#3DD9EB"/>
<path d="M42.9 18C42.5133 18 42.16 17.96 41.84 17.88C41.52 17.8 41.24 17.7 41 17.58V21.02H37.78V11.53L37.18 11.16V10.09L39.33 9.5H41V10.17C41.24 9.92333 41.53 9.71667 41.87 9.55C42.21 9.38333 42.6067 9.3 43.06 9.3C44.16 9.3 44.9667 9.67667 45.48 10.43C46 11.1833 46.26 12.2267 46.26 13.56C46.26 14.1867 46.19 14.7667 46.05 15.3C45.91 15.8267 45.7033 16.2933 45.43 16.7C45.1567 17.1067 44.8033 17.4267 44.37 17.66C43.9433 17.8867 43.4533 18 42.9 18ZM41.43 16.61C42.3233 16.61 42.77 15.9267 42.77 14.56V12.86C42.77 12.26 42.6667 11.8133 42.46 11.52C42.26 11.2267 42 11.08 41.68 11.08C41.46 11.08 41.2333 11.1467 41 11.28V16.56C41.08 16.58 41.1533 16.5933 41.22 16.6C41.2933 16.6067 41.3633 16.61 41.43 16.61ZM51.9087 12.83C51.9087 11.9833 51.8653 11.3833 51.7787 11.03C51.692 10.6767 51.532 10.5 51.2987 10.5C51.0987 10.5 50.9353 10.5367 50.8087 10.61C50.682 10.6767 50.5887 10.7867 50.5287 10.94C50.4687 11.0867 50.4287 11.24 50.4087 11.4C50.3953 11.5533 50.3887 11.75 50.3887 11.99V12.83H51.9087ZM51.1087 18.21C50.362 18.21 49.712 18.0967 49.1587 17.87C48.612 17.6433 48.1787 17.3267 47.8587 16.92C47.5453 16.5133 47.3153 16.0567 47.1687 15.55C47.022 15.0367 46.9487 14.4667 46.9487 13.84C46.9487 12.3467 47.3287 11.2167 48.0887 10.45C48.8487 9.68333 49.912 9.3 51.2787 9.3C52.592 9.3 53.532 9.61 54.0987 10.23C54.6653 10.8433 54.9487 11.8333 54.9487 13.2V14.31H50.3787V14.5C50.3787 14.8933 50.4187 15.2167 50.4987 15.47C50.5853 15.7233 50.7087 15.91 50.8687 16.03C51.0287 16.15 51.192 16.23 51.3587 16.27C51.5253 16.31 51.7287 16.33 51.9687 16.33C52.202 16.33 52.452 16.3 52.7187 16.24C52.992 16.18 53.2653 16.0867 53.5387 15.96C53.8187 15.8333 54.052 15.6833 54.2387 15.51L54.8287 16.52C54.582 16.92 54.2187 17.2567 53.7387 17.53C53.2653 17.7967 52.8087 17.9767 52.3687 18.07C51.9287 18.1633 51.5087 18.21 51.1087 18.21ZM59.262 18H56.032V11.53L55.432 11.16V10.09L57.582 9.5H59.282V10.79L59.402 10.64C59.482 10.5333 59.5986 10.4067 59.752 10.26C59.912 10.1133 60.0886 9.97 60.282 9.83C60.4753 9.68333 60.7053 9.56 60.972 9.46C61.2453 9.35333 61.512 9.3 61.772 9.3C62.6853 9.3 63.3286 9.55 63.702 10.05C64.082 10.55 64.272 11.3867 64.272 12.56C64.272 12.6 64.272 12.66 64.272 12.74C64.2653 12.82 64.262 12.8833 64.262 12.93V18H60.962V12.64C60.982 12.0133 60.7153 11.7 60.162 11.7C60.122 11.7 60.082 11.7033 60.042 11.71C60.0086 11.7167 59.9753 11.7233 59.942 11.73C59.9153 11.7367 59.882 11.75 59.842 11.77C59.8086 11.7833 59.7786 11.7967 59.752 11.81C59.7253 11.8167 59.6953 11.8333 59.662 11.86C59.6286 11.88 59.602 11.8967 59.582 11.91C59.562 11.9233 59.532 11.9467 59.492 11.98C59.4586 12.0067 59.432 12.0267 59.412 12.04C59.3986 12.0533 59.372 12.0767 59.332 12.11C59.2986 12.1367 59.2753 12.1567 59.262 12.17V18ZM69.3741 21.53C68.8541 21.53 68.2675 21.41 67.6141 21.17C66.9608 20.9367 66.5375 20.7133 66.3441 20.5L66.9741 19.13C67.1408 19.2567 67.4108 19.3733 67.7841 19.48C68.1575 19.5867 68.4775 19.64 68.7441 19.64C69.0108 19.64 69.2408 19.6033 69.4341 19.53C69.6341 19.4633 69.7875 19.3767 69.8941 19.27C70.0008 19.17 70.0875 19.0433 70.1541 18.89C70.2208 18.7433 70.2608 18.61 70.2741 18.49C70.2941 18.37 70.3075 18.2367 70.3141 18.09V17.24C69.7475 17.8267 69.0575 18.12 68.2441 18.12C67.1441 18.12 66.3375 17.7433 65.8241 16.99C65.3108 16.2367 65.0541 15.19 65.0541 13.85C65.0541 13.2233 65.1241 12.6467 65.2641 12.12C65.4041 11.5867 65.6075 11.12 65.8741 10.72C66.1475 10.3133 66.5008 9.99667 66.9341 9.77C67.3675 9.53667 67.8575 9.42 68.4041 9.42C69.2308 9.42 69.9475 9.60333 70.5541 9.97L70.7241 9.5H72.2541L74.1341 9.59V10.53L73.5341 10.95V17.63C73.5341 20.23 72.1475 21.53 69.3741 21.53ZM69.6941 16.3C69.8941 16.3 70.1008 16.2433 70.3141 16.13V10.86C70.1541 10.8267 70.0075 10.81 69.8741 10.81C68.9875 10.8167 68.5408 11.5 68.5341 12.86V14.41C68.5341 14.8367 68.5908 15.2033 68.7041 15.51C68.9041 16.0367 69.2341 16.3 69.6941 16.3ZM78.7784 21.53C78.2584 21.53 77.6718 21.41 77.0184 21.17C76.3651 20.9367 75.9418 20.7133 75.7484 20.5L76.3784 19.13C76.5451 19.2567 76.8151 19.3733 77.1884 19.48C77.5618 19.5867 77.8818 19.64 78.1484 19.64C78.4151 19.64 78.6451 19.6033 78.8384 19.53C79.0384 19.4633 79.1918 19.3767 79.2984 19.27C79.4051 19.17 79.4918 19.0433 79.5584 18.89C79.6251 18.7433 79.6651 18.61 79.6784 18.49C79.6984 18.37 79.7118 18.2367 79.7184 18.09V17.24C79.1518 17.8267 78.4618 18.12 77.6484 18.12C76.5484 18.12 75.7418 17.7433 75.2284 16.99C74.7151 16.2367 74.4584 15.19 74.4584 13.85C74.4584 13.2233 74.5284 12.6467 74.6684 12.12C74.8084 11.5867 75.0118 11.12 75.2784 10.72C75.5518 10.3133 75.9051 9.99667 76.3384 9.77C76.7718 9.53667 77.2618 9.42 77.8084 9.42C78.6351 9.42 79.3518 9.60333 79.9584 9.97L80.1284 9.5H81.6584L83.5384 9.59V10.53L82.9384 10.95V17.63C82.9384 20.23 81.5518 21.53 78.7784 21.53ZM79.0984 16.3C79.2984 16.3 79.5051 16.2433 79.7184 16.13V10.86C79.5584 10.8267 79.4118 10.81 79.2784 10.81C78.3918 10.8167 77.9451 11.5 77.9384 12.86V14.41C77.9384 14.8367 77.9951 15.2033 78.1084 15.51C78.3084 16.0367 78.6384 16.3 79.0984 16.3ZM88.6527 17.11L88.5527 17.22C88.4861 17.3 88.3827 17.3933 88.2427 17.5C88.1094 17.6067 87.9527 17.7133 87.7727 17.82C87.5994 17.9267 87.3861 18.0167 87.1327 18.09C86.8794 18.17 86.6194 18.21 86.3527 18.21C84.5527 18.21 83.6527 17.32 83.6527 15.54C83.6527 15.1933 83.7161 14.8767 83.8427 14.59C83.9694 14.2967 84.1327 14.05 84.3327 13.85C84.5327 13.65 84.7727 13.4733 85.0527 13.32C85.3327 13.16 85.6127 13.0367 85.8927 12.95C86.1794 12.8567 86.4794 12.78 86.7927 12.72C87.1061 12.66 87.3861 12.62 87.6327 12.6C87.8794 12.58 88.1161 12.57 88.3427 12.57V12.39C88.3427 11.9833 88.2327 11.6967 88.0127 11.53C87.7994 11.3633 87.4527 11.28 86.9727 11.28C86.5594 11.28 86.1294 11.33 85.6827 11.43C85.2361 11.5233 84.8861 11.6367 84.6327 11.77L83.9927 10.41C84.4461 10.1167 85.0361 9.86 85.7627 9.64C86.4894 9.41333 87.2294 9.3 87.9827 9.3C88.6494 9.3 89.1994 9.36667 89.6327 9.5C90.0661 9.62667 90.4161 9.84667 90.6827 10.16C90.9561 10.4667 91.1494 10.86 91.2627 11.34C91.3761 11.8133 91.4327 12.4167 91.4327 13.15V17.22L91.7127 18H88.9727L88.6527 17.11ZM87.8627 16.45C87.9494 16.45 88.0294 16.4333 88.1027 16.4C88.1827 16.36 88.2427 16.3233 88.2827 16.29C88.3227 16.25 88.3427 16.23 88.3427 16.23V13.83C87.9361 13.83 87.6127 13.9433 87.3727 14.17C87.1327 14.39 87.0127 14.7333 87.0127 15.2C87.0127 16.0333 87.2961 16.45 87.8627 16.45ZM93.5016 21.44C92.575 21.44 91.825 21.0867 91.2516 20.38L91.7616 19.3C92.055 19.4867 92.3483 19.58 92.6416 19.58C92.7083 19.58 92.765 19.5667 92.8116 19.54C92.865 19.52 92.9216 19.4667 92.9816 19.38C93.0416 19.3 93.0883 19.1867 93.1216 19.04C93.1616 18.9 93.195 18.7 93.2216 18.44C93.2483 18.1867 93.2616 17.8833 93.2616 17.53V11.5L92.5316 11.1V10.03L94.8316 9.5H96.4016V16.83C96.4016 18.2967 96.1616 19.43 95.6816 20.23C95.2083 21.0367 94.4816 21.44 93.5016 21.44ZM94.7616 8.58L93.1216 6.93V6.58L94.7616 4.94H95.1416L96.8516 6.58V6.93L95.1416 8.58H94.7616ZM97.6042 18V11.53L97.0042 11.16V10.09L99.1542 9.5H100.824V18H97.6042ZM99.0542 8.58L97.4142 6.93V6.58L99.0542 4.94H99.4342L101.144 6.58V6.93L99.4342 8.58H99.0542ZM106.524 17.11L106.424 17.22C106.357 17.3 106.254 17.3933 106.114 17.5C105.98 17.6067 105.824 17.7133 105.644 17.82C105.47 17.9267 105.257 18.0167 105.004 18.09C104.75 18.17 104.49 18.21 104.224 18.21C102.424 18.21 101.524 17.32 101.524 15.54C101.524 15.1933 101.587 14.8767 101.714 14.59C101.84 14.2967 102.004 14.05 102.204 13.85C102.404 13.65 102.644 13.4733 102.924 13.32C103.204 13.16 103.484 13.0367 103.764 12.95C104.05 12.8567 104.35 12.78 104.664 12.72C104.977 12.66 105.257 12.62 105.504 12.6C105.75 12.58 105.987 12.57 106.214 12.57V12.39C106.214 11.9833 106.104 11.6967 105.884 11.53C105.67 11.3633 105.324 11.28 104.844 11.28C104.43 11.28 104 11.33 103.554 11.43C103.107 11.5233 102.757 11.6367 102.504 11.77L101.864 10.41C102.317 10.1167 102.907 9.86 103.634 9.64C104.36 9.41333 105.1 9.3 105.854 9.3C106.52 9.3 107.07 9.36667 107.504 9.5C107.937 9.62667 108.287 9.84667 108.554 10.16C108.827 10.4667 109.02 10.86 109.134 11.34C109.247 11.8133 109.304 12.4167 109.304 13.15V17.22L109.584 18H106.844L106.524 17.11ZM105.734 16.45C105.82 16.45 105.9 16.4333 105.974 16.4C106.054 16.36 106.114 16.3233 106.154 16.29C106.194 16.25 106.214 16.23 106.214 16.23V13.83C105.807 13.83 105.484 13.9433 105.244 14.17C105.004 14.39 104.884 14.7333 104.884 15.2C104.884 16.0333 105.167 16.45 105.734 16.45ZM113.813 18H110.583V11.53L109.983 11.16V10.09L112.133 9.5H113.833V10.79L113.953 10.64C114.033 10.5333 114.149 10.4067 114.303 10.26C114.463 10.1133 114.639 9.97 114.833 9.83C115.026 9.68333 115.256 9.56 115.523 9.46C115.796 9.35333 116.063 9.3 116.323 9.3C117.236 9.3 117.879 9.55 118.253 10.05C118.633 10.55 118.823 11.3867 118.823 12.56C118.823 12.6 118.823 12.66 118.823 12.74C118.816 12.82 118.813 12.8833 118.813 12.93V18H115.513V12.64C115.533 12.0133 115.266 11.7 114.713 11.7C114.673 11.7 114.633 11.7033 114.593 11.71C114.559 11.7167 114.526 11.7233 114.493 11.73C114.466 11.7367 114.433 11.75 114.393 11.77C114.359 11.7833 114.329 11.7967 114.303 11.81C114.276 11.8167 114.246 11.8333 114.213 11.86C114.179 11.88 114.153 11.8967 114.133 11.91C114.113 11.9233 114.083 11.9467 114.043 11.98C114.009 12.0067 113.983 12.0267 113.963 12.04C113.949 12.0533 113.923 12.0767 113.883 12.11C113.849 12.1367 113.826 12.1567 113.813 12.17V18Z" fill="#11142D"/>
</g>
</g>
<defs>
<clipPath id="clip0_1706_11">
<rect width="174" height="26" fill="white"/>
</clipPath>
</defs>
</svg>
